<svg width="1024" height="1024" viewBox="0 0 1024 1024" xmlns="http://www.w3.org/2000/svg" preserveAspectRatio="xMidYMid meet"><svg x="77" y="287" width="872" height="366" xmlns="http://www.w3.org/2000/svg" preserveAspectRatio="none"><svg version="1.1" xmlns="http://www.w3.org/2000/svg" style="display: block;" width="872" height="366" viewBox="0.09 0.00 2049.48 859.00" preserveAspectRatio="none"><g id="svg-group-9563e160-8aeb-4784-95cb-a9651774a00c">
<path transform="translate(0,0)" fill="rgba(254, 254, 254, 1)" d="M 1148.18 0 L 1149.55 0 C 1173.99 21.0167 1188.27 41.1508 1207.87 66.4987 L 1254.81 127.053 C 1307.76 194.906 1362.62 261.996 1415.16 330.185 C 1434.35 355.001 1453.34 379.973 1472.13 405.097 C 1486.98 424.858 1506.76 451.48 1523.08 469.565 C 1541.56 446.042 1623.89 327.992 1645.29 324.977 C 1647.73 324.632 1650.24 326.461 1652.08 327.923 C 1659.02 333.442 1665.2 340.907 1671.14 347.486 C 1693.33 372.069 1712.52 398.67 1732.43 425.051 L 1807.99 523.501 L 1959.84 717.109 C 1985.67 750.41 2013.81 783.648 2037.51 818.475 C 2042.92 826.427 2044.19 831.646 2048 838.031 L 2048 859 L 963.677 859 C 956.419 848.778 956.837 840.43 953.981 828.686 L 950.908 827.576 C 948.393 829.434 949.072 830.327 948.381 834.496 C 943.404 849.237 935.617 850.899 920.776 851.24 C 860.485 852.623 800.477 851.783 740.227 849.938 C 699.01 848.676 656.205 849.6 614.876 849.566 L 258 848.084 C 176.495 847.89 92.6408 849.218 11.3793 847.882 C 7.27106 845.343 5.17222 843.308 1.65894 840.114 C 10.5705 821.77 30.2721 800.99 44.0932 785.04 C 57.5417 769.756 70.6223 754.152 83.3238 738.241 C 117.831 694.977 150.437 650.073 185.159 607.049 C 192.269 598.239 209.594 577.505 220.309 576.615 C 227.858 579.196 270.286 631.801 278.378 641.788 C 288.916 633.798 311.686 605.144 321.08 593.409 C 342.299 566.9 363.958 540.125 383.868 512.643 C 399.702 490.474 415.931 468.59 432.546 447 C 439.221 438.212 465.642 401.216 475.475 401.378 C 498.93 407.673 577.402 520.518 596.346 545.703 C 608.903 546.757 612.037 539.73 615.092 528.831 C 615.027 517.554 614.671 501.186 616.07 490.239 C 618.737 469.36 623.513 448.813 625.474 427.696 C 624.491 425.08 625.181 425.734 623.097 424.7 C 621.39 426.696 620.33 428.33 617.943 429.345 L 615.056 427.709 C 605.439 439.974 597.051 453.29 586.412 464.717 C 582.599 468.813 572.277 479.484 566.403 479.279 C 563.702 479.185 561.222 477.447 559.367 475.614 C 555.487 471.781 553.998 466.326 554.114 460.988 C 554.575 439.799 616.57 364.156 632.584 348.603 C 638.101 343.246 645.993 336.723 654.08 336.971 C 660.147 337.157 668.045 345.484 672.071 349.609 C 682.258 360.045 691.009 372.405 700.188 383.765 C 724.457 413.8 748.059 445.18 774.633 473.213 C 819.836 408.391 873.097 345.498 921.148 282.418 L 1024.86 146.565 C 1042.24 123.232 1059.8 100.033 1077.53 76.9701 C 1101.92 45.3918 1116.37 25.2627 1148.18 0 z M 742.477 571.746 L 878.56 745.261 C 889.722 759.335 916.559 796.556 928.676 806.96 L 930.461 806.91 C 932.236 808.682 936.696 812.981 937.858 814.819 C 947.5 830.068 948.347 821.126 961.4 818.628 C 976.017 810.957 958.445 787.695 954.473 777.924 C 950.983 771.409 930.936 745.88 925.81 738.816 C 898.649 701.391 869.035 666.07 840.017 630.157 C 821.282 606.97 805.436 582.81 785.925 559.682 C 766.929 545.524 773.65 550.401 756.797 559.486 L 756.074 559.87 C 750.845 563.984 747.307 567.155 742.477 571.746 z M 631.462 570.626 C 629.581 579.057 627.625 583.576 631.587 591.196 C 639.649 601.352 647.528 611.653 655.219 622.094 C 661.922 626.225 666.494 630.071 674.078 625.269 C 682.823 609.424 699.467 591.043 709.557 575.691 C 723.344 554.714 737.578 530.925 749.052 508.741 C 743.446 500.184 726.536 480.479 719.315 471.995 C 707.208 457.772 694.873 441.675 682.789 427.811 C 680.029 425.242 677.332 422.331 673.266 422.443 C 670.868 422.509 668.118 424.328 666.604 426.131 C 663.6 429.711 660.672 480.967 658.589 491.961 C 658.046 494.824 656.617 497.614 655.577 500.336 C 649.527 528.068 644.408 545.058 631.462 570.626 z M 981.996 498.659 C 987.969 510.858 994.03 541.46 997.93 555.744 L 1045.03 731.236 L 1060.36 789.404 C 1061.04 792.069 1060.92 798.393 1061.65 799.629 C 1064.63 804.677 1070.27 812.587 1074.62 816.234 C 1133.7 816.85 1193.09 815.697 1252.12 816.469 C 1254.38 814.278 1258.54 810 1260.93 808.33 C 1262.68 806.723 1273.56 790.927 1276.35 787.232 C 1284.74 776.096 1293.2 765.015 1301.86 754.041 C 1362.21 677.521 1416.93 594.369 1480.14 520.29 C 1482.95 512.877 1481.52 499.604 1480.88 491.752 C 1470.06 477.754 1459.01 461.505 1448.76 446.939 C 1446.27 444.926 1443.42 442.003 1440.4 442.071 C 1424.5 446.536 1405.87 485.552 1378.46 496.719 L 1378.19 497.657 C 1373.38 508.432 1352.79 521.943 1346.36 530.996 C 1338.56 541.97 1347.51 545.751 1327.76 547.617 C 1306.66 568.433 1251.27 624.635 1228.75 636.538 C 1220.34 630.852 1208.35 620.033 1200.42 613.154 C 1185.21 600.023 1170.17 586.706 1155.29 573.206 C 1136.52 556.212 1115.69 539.226 1097.57 522.01 C 1061.83 488.044 1025.23 452.934 986.952 421.791 C 979.197 417.365 976.251 413.172 969.725 407.97 C 966.648 410.392 963.254 413.199 960.13 415.483 C 963.596 427.469 982.53 489.958 981.996 498.659 z M 667.5 825.13 C 677.079 825.143 748.321 825.928 751.582 824.036 C 753.739 820.75 755.907 815.703 755.435 811.488 C 754.648 804.461 727.013 768.453 721.268 768.326 C 708.033 770.634 641.561 797.154 632.552 805.699 C 629.975 810.833 630.912 819.067 631.092 825.039 L 667.5 825.13 z M 1564.59 484.901 C 1563.43 488.819 1561.59 494.344 1560.87 498.233 C 1563.39 507.021 1564.04 508.281 1570.77 514.723 C 1583.28 524.527 1605.07 538.35 1618.85 547.564 C 1626.02 550.603 1631.57 553.579 1638.62 548.604 C 1641.07 546.876 1641.72 548.112 1644.38 545.296 C 1641.8 522.678 1639.85 500.3 1637.09 477.575 C 1633.99 467.293 1632.43 426.618 1626.66 422.505 C 1620.95 422.446 1608.74 429.632 1604.87 433.933 C 1601.39 437.798 1601.11 441.163 1596.16 444.758 C 1583.89 458.527 1575.75 470.685 1564.59 484.901 z M 457.568 451.758 C 445.06 468.838 432.112 486.734 419.116 503.378 C 401.862 525.475 385.022 545.385 369.428 568.831 C 397.114 594.512 427.342 617.259 454.759 643.272 C 460.179 648.415 466.254 653.508 471.869 658.498 C 477.095 659.79 479.695 662.031 484.284 664.394 C 498.566 671.752 495.848 653.414 495.965 643.726 C 493.479 626.982 491.898 605.134 489.91 587.723 C 485.665 552.379 481.734 516.997 478.117 481.583 C 474.659 471.964 475.687 464.246 473.382 453.55 C 466.24 449.765 464.671 447.545 457.568 451.758 z M 519.599 617.632 C 520.926 636.677 526.403 663.003 530.23 682.281 L 548.331 663.722 C 564.544 646.355 591.5 615.975 608.545 601.82 C 601.69 590.158 573.518 552.167 563.656 543.642 C 552.251 565.388 533.205 596.78 519.599 617.632 z M 404.663 803.55 C 385.876 737.011 364.55 667.006 349.902 599.553 C 349.185 599.298 348.028 598.833 347.327 598.716 C 333.828 610.194 305.682 644.697 293.466 660.352 C 305.448 675.909 318.053 690.852 329.99 706.427 C 346.544 728.025 362.08 751.491 378.415 773.085 C 386.006 782.461 396.068 795.084 404.663 803.55 z M 609.32 756.93 C 608.057 762.299 602.244 766.64 604.598 771.56 C 610.139 774.713 613.66 773.348 619.832 776.885 C 622.484 776.475 623.509 776.284 626.118 775.449 C 639.047 768.7 652.085 762.16 665.225 755.832 C 680.917 748.453 699.364 740.47 714.001 731.428 C 715.503 727.216 724.68 728.402 725.389 722.117 C 723.589 718.278 711.77 709.328 706.934 703.723 L 705.038 702.396 C 684.471 702.029 685.61 679.916 658.172 692.713 L 625.868 735.085 C 621.763 740.437 612.771 751.502 609.32 756.93 z M 179.087 721.368 C 171.436 709.339 162.284 695.392 156.081 682.752 C 148.9 689.434 141.413 700.102 135.231 708.02 C 125.506 720.618 115.506 733.003 105.239 745.164 C 105.554 747.945 107.076 762.932 107.669 763.952 C 111.477 765.432 118.285 760.722 124.27 759.861 C 129.925 755.237 140.992 748.21 147.438 743.812 C 158.067 736.443 168.618 728.961 179.087 721.368 z M 1688.5 565.537 L 1703.48 538.625 C 1711.88 523.944 1721.97 503.132 1730.26 489.738 C 1720.76 476.569 1679.74 418.362 1670.45 412.624 C 1673.61 462.552 1684.41 515.286 1688.5 565.537 z M 145.377 818.078 C 154.268 808.819 173.033 777.689 179.205 765.941 L 179.062 763.7 L 177.12 762.622 C 173.897 763.614 92.1643 813.516 91.3766 814.523 C 90.5148 817.784 90.3835 816.483 91.7777 819.422 L 93.8271 820.204 C 112.881 817.478 126.068 817.917 145.377 818.078 z M 729.098 690.818 C 728.08 680.414 723.616 619.42 716.28 614.757 C 708.217 622.008 689.541 645.773 683.754 655.372 C 691.694 662.703 702.526 670.52 711.315 677.168 L 729.098 690.818 z M 532.605 537.955 L 534.829 534.169 C 534.876 525.081 534.692 517.335 536.243 508.319 C 528.811 499.624 522.187 488.662 513.622 481.172 C 510.596 478.526 509.154 478.858 506.073 480.907 C 500.631 489.651 505.083 504.064 505.63 514.03 C 506.152 523.549 506.391 532.939 506.567 542.471 C 512.435 545.12 518.881 550.118 524.732 548.694 C 528.62 545.657 529.295 539.185 532.605 537.955 z M 261.659 662.04 C 256.837 655.874 251.934 649.773 246.951 643.737 C 241.366 640.423 235.663 636.956 229.053 636.587 C 220.245 641.145 220.978 677.66 221.082 687.908 C 245.413 688.91 233.29 685.31 248.108 679.384 C 252.948 673.812 257.24 667.942 261.659 662.04 z M 773.163 748.566 C 761.103 743.699 763.535 742.166 748.565 738.494 C 749.782 745.184 750.564 753.131 753.705 758.933 C 757.253 764.008 787.09 802.467 790.254 805.137 C 807.079 822.334 825.279 818.907 848.489 819.586 C 856.936 815.345 848.935 799.991 843.929 795.206 C 819.568 780.356 795.678 762.071 773.163 748.566 z M 764.607 638.79 C 762.302 636.68 760.609 634.599 757.543 634.433 C 754.414 635.513 753.524 636.681 751.192 639.016 C 749.007 644.963 750.864 660.464 757.287 664.216 C 768.043 662.593 767.289 647.408 764.942 639.391 L 764.607 638.79 z M 188.445 669.356 L 192.003 669.951 C 195.289 667.115 197.404 651.259 195.193 646.416 C 194.948 645.88 191.733 643.267 191.016 642.699 C 181.239 652.867 174.02 659.655 188.445 669.356 z M 791.705 681.828 C 782.555 691.733 776.8 696.54 765.692 704.525 C 776.328 717.418 845.948 769.536 862.519 780.133 L 881.36 792.054 C 871.933 777.627 802.652 690.202 791.705 681.828 z M 1930.39 812.745 C 1930.44 803.045 1931.62 801.743 1925.2 795.226 C 1921.06 791.542 1892.36 774.124 1885.52 769.793 L 1789.22 708.782 L 1627.7 604.32 C 1605.24 589.723 1575.37 568.506 1552.98 555.582 C 1541.91 551.21 1533.84 546.098 1522.09 544.103 C 1514.61 549.22 1509.27 554.067 1502.52 560.029 C 1471.91 597.065 1444.25 636.329 1415.64 674.69 L 1383.89 716.743 C 1379.64 722.329 1371.95 731.633 1368.46 736.953 C 1368.17 743.088 1360.65 744.713 1362.99 752.888 C 1365.44 755.242 1366.59 756.132 1369.37 758.087 C 1380.88 755.834 1393.98 754.697 1401.27 745.001 C 1405.48 744.174 1409.96 743.206 1414.17 742.532 C 1429.43 734.106 1445.17 727.029 1460.65 719.125 C 1512.35 692.725 1564.36 667.175 1616.69 642.024 C 1622.08 639.434 1627.16 637.135 1632.75 634.959 C 1646.19 644.158 1654.14 655.428 1663.72 668.399 C 1696.71 713.087 1732.58 755.497 1765.06 800.563 C 1766.22 802.162 1770.03 807.279 1771.2 808.161 C 1775.15 811.374 1775.92 812.729 1781.09 812.746 C 1830.8 812.913 1880.7 812.788 1930.39 812.745 z M 1915.71 740.418 C 1925.05 746.409 1935.32 753.508 1945.63 757.409 C 1931.4 742.154 1918.65 728.307 1905.39 712.113 C 1873.29 672.23 1841.63 631.993 1810.42 591.408 C 1803.61 582.636 1762.22 528.256 1757.11 526.534 C 1744.04 548.87 1722.48 582.122 1711.68 604.291 C 1728.67 619.961 1781.89 652.453 1803.14 665.986 C 1841 690.097 1878.21 716.331 1915.71 740.418 z M 1232.49 335.004 C 1235.01 331.002 1237.24 326.858 1239.37 322.643 C 1250.66 300.35 1263.7 279.01 1275.56 257.024 C 1276.99 250.072 1279.99 248.039 1282 235.06 C 1266.95 216.606 1252.11 199.953 1242.35 177.96 C 1240.99 174.967 1217.78 145.423 1214.71 141.866 C 1210.11 138.399 1207.37 133.845 1204.1 129.12 C 1200.8 128.687 1196.25 127.682 1193.31 128.839 C 1187.51 140.329 1195.71 177.891 1197.09 191.508 C 1199.93 219.556 1203.71 248.537 1209.73 276.098 C 1210.23 278.392 1208.8 285.479 1209.22 287 C 1210.86 292.88 1216.44 353.89 1217.12 354.769 C 1217.63 354.378 1230.37 337.251 1231.64 335.286 L 1232.49 335.004 z M 1141.11 112.355 C 1139.85 108.013 1138.83 101.946 1137.46 96.9402 C 1132.04 93.0043 1129.53 91.1582 1124.87 86.397 L 1115.23 95.8229 C 1109.22 102.298 1103.93 109.979 1098.3 116.846 C 1067.43 154.518 1039.12 193.866 1009.65 232.57 L 967.708 287.663 C 961.988 295.113 947.316 313.383 943.275 320.789 C 953.936 338.397 1011.72 386.345 1030.74 402.983 L 1108.34 471.711 C 1117.84 480.127 1142.95 504.705 1150.83 510.439 L 1151.33 510.63 C 1166.88 516.655 1179.05 536.865 1190.85 533.268 C 1197.02 527.762 1196.01 518.145 1196.09 510.455 C 1194.1 488.272 1187.65 453.761 1184.43 430.338 L 1163.68 275.03 L 1149.81 175.528 C 1147.32 156.549 1144.79 130.697 1141.11 112.355 z M 1246.81 564.512 C 1294.11 519.995 1337.26 471.385 1384.47 426.75 C 1393.4 418.31 1402.18 409.468 1410.98 400.879 C 1406.25 390.097 1345.03 305.811 1335.81 296.781 C 1329.18 291.401 1329.2 290.131 1321.26 286.193 C 1312.69 288.361 1309.99 288.475 1304.28 295.228 C 1293.26 314.313 1233.01 417.828 1231.67 428.003 C 1230.1 439.906 1232.26 453.584 1233.54 465.501 C 1237.11 498.577 1243.66 531.495 1246.81 564.512 z M 966.827 720.738 C 980.213 737.601 998.097 760.673 1014.25 774.561 C 1008.3 750.057 999.488 722.345 992.484 697.834 L 961.043 584.341 C 944.066 522.562 928.454 460.248 910.573 398.757 C 908.295 390.922 904.953 381.347 900.172 374.814 L 897.501 373.628 C 876.767 395.644 859.576 422.746 841.686 447.169 C 829.337 464.029 815.481 480.284 803.934 497.664 C 802.634 499.621 799.971 503.371 800.231 505.72 C 801.768 519.588 945.678 692.402 966.827 720.738 z M 268.145 697.801 C 246.239 721.683 215.141 770.402 195.617 799.059 C 193.556 805.606 189.674 811.305 192.098 816.579 C 205.029 825.697 261.533 820.73 278.681 821.53 C 279.77 821.581 284.521 818.141 286.236 818.135 C 300.056 817.709 342.316 817.883 354.544 822.116 C 363.369 818.781 371.416 819.147 375.445 813.409 C 375.645 809.022 375.57 810.295 373.371 805.838 C 343.946 770.399 319.262 733.037 291.756 696.731 C 279.234 684.837 279.333 689.333 268.145 697.801 z M 438.715 818.038 C 465.53 817.859 511.332 823.53 537.041 817.352 C 538.111 813.437 561.787 779.308 565.784 773.881 C 592.143 738.081 615.956 700.837 642.467 665.18 C 639.846 654.563 639.316 646.016 632.641 636.569 C 621.427 620.7 615.942 633.975 606.977 640.688 C 602.994 643.871 593.17 655.224 588.628 659.643 C 567.584 680.123 540.713 713.121 517.322 729.062 C 504.445 720.744 493.024 709.445 481.17 699.972 C 453.975 678.238 429.128 654.968 403.205 632.066 C 398.48 631.734 392.564 619.877 384.821 624.261 C 381.536 631.224 423.02 765.038 425.604 785.166 C 425.738 786.211 428.201 788.709 429.191 789.456 C 429.567 794.782 427.576 794.654 429.962 799.88 C 432.759 806.007 435.745 812.005 438.715 818.038 z M 1524.27 819.578 L 1665.98 819.254 C 1674.78 819.232 1717.91 819.727 1724.65 818.314 C 1719.48 804.765 1634.9 694.97 1623.41 685.184 C 1545.71 720.131 1470.56 759.689 1393.88 796.757 C 1386.73 800.21 1364.72 810.701 1361.31 816.641 L 1361.99 818.085 C 1374.32 821.012 1407.68 820.015 1422.16 819.983 L 1524.27 819.578 z"/>
<path transform="translate(0,0)" fill="rgba(0, 0, 0, 1)" d="M 615.092 528.831 C 617.45 546.08 622.256 555.704 631.462 570.626 C 629.581 579.057 627.625 583.576 631.587 591.196 C 623.781 583.707 604.681 556.145 596.346 545.703 C 608.903 546.757 612.037 539.73 615.092 528.831 z"/>
<path transform="translate(0,0)" fill="rgba(0, 0, 0, 1)" d="M 664.039 399.151 C 669.552 408.415 676.814 418.554 682.789 427.811 C 680.029 425.242 677.332 422.331 673.266 422.443 C 670.868 422.509 668.118 424.328 666.604 426.131 C 663.6 429.711 660.672 480.967 658.589 491.961 C 658.046 494.824 656.617 497.614 655.577 500.336 C 655.79 497.546 656.288 494.323 656.738 491.555 C 661.72 460.912 663.937 430.251 664.039 399.151 z"/>
<path transform="translate(0,0)" fill="rgba(0, 0, 0, 1)" d="M 954.473 777.924 C 962.59 787.081 974.869 808.003 981.713 819.188 C 975.26 819.176 967.714 819.362 961.4 818.628 C 976.017 810.957 958.445 787.695 954.473 777.924 z"/>
<path transform="translate(0,0)" fill="rgba(0, 0, 0, 1)" d="M 928.676 806.96 L 930.461 806.91 C 932.236 808.682 936.696 812.981 937.858 814.819 C 947.5 830.068 948.347 821.126 961.4 818.628 C 958.622 820.928 955.178 825.341 953.981 828.686 L 950.908 827.576 C 948.393 829.434 949.072 830.327 948.381 834.496 C 946.941 823.229 934.2 816.115 928.676 806.96 z"/>
<path transform="translate(0,0)" fill="rgba(0, 0, 0, 1)" d="M 773.57 542.992 C 779.334 548.459 781.793 552.922 785.925 559.682 C 766.929 545.524 773.65 550.401 756.797 559.486 L 756.074 559.87 C 761.483 553.97 767.676 548.441 773.57 542.992 z"/>
<path transform="translate(0,0)" fill="rgba(0, 0, 0, 1)" d="M 655.219 622.094 C 661.922 626.225 666.494 630.071 674.078 625.269 C 672.61 628.452 669.06 633.73 667.086 636.864 C 662.31 631.73 659.384 627.775 655.219 622.094 z"/>
<path transform="translate(0,0)" fill="rgba(0, 0, 0, 1)" d="M 627.464 411.232 C 626.666 416.703 626.002 422.193 625.474 427.696 C 624.491 425.08 625.181 425.734 623.097 424.7 C 621.39 426.696 620.33 428.33 617.943 429.345 L 615.056 427.709 C 619.044 422.206 623.102 416.411 627.464 411.232 z"/>
<path transform="translate(0,0)" fill="rgba(0, 0, 0, 1)" d="M 897.501 373.628 L 900.172 374.814 C 904.953 381.347 908.295 390.922 910.573 398.757 C 928.454 460.248 944.066 522.562 961.043 584.341 L 992.484 697.834 C 999.488 722.345 1008.3 750.057 1014.25 774.561 C 998.097 760.673 980.213 737.601 966.827 720.738 C 945.678 692.402 801.768 519.588 800.231 505.72 C 799.971 503.371 802.634 499.621 803.934 497.664 C 815.481 480.284 829.337 464.029 841.686 447.169 C 859.576 422.746 876.767 395.644 897.501 373.628 z M 809.188 511.117 C 816.884 524.798 828.554 537.269 837.684 549.996 C 859.24 580.045 882.23 607.678 905.785 636.075 C 922.919 656.733 938.513 679.561 956.253 700.13 C 962.653 708.119 987.163 742.773 996.995 739.959 L 997.948 738.584 C 990.998 702.338 980.426 666.444 969.455 631.269 C 967.437 624.799 965.303 618.433 963.578 611.869 L 927.43 477.399 C 922.017 457.379 917.009 437.482 910.818 417.451 C 908.366 409.517 905.855 393.642 899.002 387.482 C 898.093 386.665 894.928 386.928 893.474 386.911 C 869.525 420.651 842.394 451.96 817.608 485.046 C 810.193 494.944 808.706 498.698 809.188 511.117 z"/>
<path transform="translate(0,0)" fill="rgba(0, 0, 0, 1)" d="M 1524.27 819.578 L 1422.16 819.983 C 1407.68 820.015 1374.32 821.012 1361.99 818.085 L 1361.31 816.641 C 1364.72 810.701 1386.73 800.21 1393.88 796.757 C 1470.56 759.689 1545.71 720.131 1623.41 685.184 C 1634.9 694.97 1719.48 804.765 1724.65 818.314 C 1717.91 819.727 1674.78 819.232 1665.98 819.254 L 1524.27 819.578 z M 1705.49 812.829 C 1709.82 812.733 1709.84 813.483 1712.43 811.258 C 1711.95 801.041 1638.34 708.914 1627.75 694.531 C 1627.16 693.732 1624.44 691.913 1623.29 692.466 C 1604.65 697.797 1583.18 708.219 1565.14 716.291 C 1544.81 725.383 1533.38 732.753 1512.13 743.219 C 1473.18 762.396 1429.63 782.284 1391.85 803.855 C 1391.1 804.282 1390.73 806.612 1390.49 807.629 C 1390.96 809.468 1392.76 813.315 1394.75 813.922 C 1416.99 820.678 1447.52 813.128 1469.36 814.51 C 1488.25 815.705 1533.61 811.317 1548.73 815.011 C 1549.24 814.781 1549.61 814.631 1550.14 814.441 L 1550.89 814.184 C 1560.42 810.85 1687.89 812.687 1705.49 812.829 z"/>
<path transform="translate(0,0)" fill="rgba(0, 0, 0, 1)" d="M 1757.11 526.534 C 1762.22 528.256 1803.61 582.636 1810.42 591.408 C 1841.63 631.993 1873.29 672.23 1905.39 712.113 C 1918.65 728.307 1931.4 742.154 1945.63 757.409 C 1935.32 753.508 1925.05 746.409 1915.71 740.418 C 1878.21 716.331 1841 690.097 1803.14 665.986 C 1781.89 652.453 1728.67 619.961 1711.68 604.291 C 1722.48 582.122 1744.04 548.87 1757.11 526.534 z M 1864.88 701.244 C 1870.38 704.604 1881.43 711.864 1887.13 713.028 L 1888.78 712.444 C 1889.91 709.408 1891.35 706.589 1890.47 703.52 C 1881.44 690.009 1869.21 676.451 1859.54 663.237 C 1840.37 637.038 1820.74 612.254 1800.34 587.004 C 1792.51 577.462 1784.77 567.856 1777.1 558.187 C 1773.04 552.967 1762.39 537.53 1757.47 535.676 C 1749.16 548.455 1718.69 592.121 1720.67 604.512 C 1727.4 613.698 1762.11 634.78 1772.61 641.666 C 1790.88 653.641 1809.89 666.339 1828.2 678.457 C 1839.83 686.155 1853.47 693.281 1864.88 701.244 z"/>
<path transform="translate(0,0)" fill="rgba(0, 0, 0, 1)" d="M 347.327 598.716 C 348.028 598.833 349.185 599.298 349.902 599.553 C 364.55 667.006 385.876 737.011 404.663 803.55 C 396.068 795.084 386.006 782.461 378.415 773.085 C 362.08 751.491 346.544 728.025 329.99 706.427 C 318.053 690.852 305.448 675.909 293.466 660.352 C 305.682 644.697 333.828 610.194 347.327 598.716 z M 365.795 746.999 C 370.833 753.762 374.958 762.624 384.263 760.565 C 385.324 758.836 385.722 758.093 384.854 756.026 C 381.77 748.686 381.624 748.943 383.425 741.287 C 375.104 729.767 373.91 708.324 370.056 694.378 C 366.404 681.162 362.356 667.932 358.24 654.836 C 355.815 647.121 350.589 612.531 342.471 610.522 C 331.494 620.191 308.74 646.723 306.581 661.646 C 305.341 670.224 323.91 691.045 329.459 698.48 C 341.283 714.322 354.721 730.457 365.795 746.999 z"/>
<path transform="translate(0,0)" fill="rgba(0, 0, 0, 1)" d="M 716.51 757.883 L 718.894 757.892 C 726.803 761.923 765.97 814.794 774.68 826.044 L 639.75 826.027 L 579.147 826.088 C 592.415 816.141 623.713 802.805 640.366 795.052 C 665.993 783.173 691.38 770.781 716.51 757.883 z M 631.092 825.039 L 667.5 825.13 C 677.079 825.143 748.321 825.928 751.582 824.036 C 753.739 820.75 755.907 815.703 755.435 811.488 C 754.648 804.461 727.013 768.453 721.268 768.326 C 708.033 770.634 641.561 797.154 632.552 805.699 C 629.975 810.833 630.912 819.067 631.092 825.039 z"/>
<path transform="translate(0,0)" fill="rgba(0, 0, 0, 1)" d="M 1670.45 412.624 C 1679.74 418.362 1720.76 476.569 1730.26 489.738 C 1721.97 503.132 1711.88 523.944 1703.48 538.625 L 1688.5 565.537 C 1684.41 515.286 1673.61 462.552 1670.45 412.624 z M 1707.28 522.615 C 1728.61 485.763 1721.35 480.742 1695.28 447.978 C 1690.52 441.99 1686.19 436.532 1678.32 436.544 C 1677.89 438.919 1675.92 451.233 1676.45 451.788 C 1685.57 461.389 1678.91 469.902 1679.68 481.271 C 1679.69 482.473 1683.31 485.732 1683.5 486.427 C 1686.65 497.801 1685.95 520.965 1693.81 528.896 C 1695.05 530.14 1704.69 528.027 1707.28 522.615 z"/>
<path transform="translate(0,0)" fill="rgba(0, 0, 0, 1)" d="M 202.817 741.8 L 204.974 742.293 C 205.449 744.907 203.995 746.732 202.276 748.666 C 181.741 771.769 165.119 797.122 148.734 823.32 C 139.505 824.246 124.547 823.87 114.888 823.964 C 99.5035 824.177 84.1224 824.6 68.7492 825.234 L 66.6541 824.676 L 66.5831 822.824 C 70.0188 818.323 100.896 801.834 107.401 798.634 C 140.365 782.415 170.518 758.405 202.817 741.8 z M 93.8271 820.204 C 112.881 817.478 126.068 817.917 145.377 818.078 C 154.268 808.819 173.033 777.689 179.205 765.941 L 179.062 763.7 L 177.12 762.622 C 173.897 763.614 92.1643 813.516 91.3766 814.523 C 90.5148 817.784 90.3835 816.483 91.7777 819.422 L 93.8271 820.204 z"/>
<path transform="translate(0,0)" fill="rgba(0, 0, 0, 1)" d="M 791.705 681.828 C 802.652 690.202 871.933 777.627 881.36 792.054 L 862.519 780.133 C 845.948 769.536 776.328 717.418 765.692 704.525 C 776.8 696.54 782.555 691.733 791.705 681.828 z M 821.358 743.101 C 824.091 744.319 825.55 745.288 828.439 744.602 C 829.464 743.326 830.131 743.072 829.798 741.385 C 827.62 730.338 801.427 696.372 794.307 690.422 L 791.356 689.656 C 788.673 692.936 779.118 702.818 777.827 705.222 C 774.825 710.813 795.589 725.214 799.849 728.358 C 806.852 733.512 814.025 738.429 821.358 743.101 z"/>
<path transform="translate(0,0)" fill="rgba(0, 0, 0, 1)" d="M 716.28 614.757 C 723.616 619.42 728.08 680.414 729.098 690.818 L 711.315 677.168 C 702.526 670.52 691.694 662.703 683.754 655.372 C 689.541 645.773 708.217 622.008 716.28 614.757 z M 707.832 667.335 C 711.837 671.154 715.554 672.237 720.116 668.757 C 725.849 657.738 724.139 640.886 716.661 631.154 L 714.648 630.486 C 708.95 634.812 695.359 647.685 693.717 654.546 C 694.87 659.857 703.266 662.278 707.832 667.335 z"/>
<path transform="translate(0,0)" fill="rgba(0, 0, 0, 1)" d="M 373.81 605.194 C 378.816 609.567 400.413 627.935 403.205 632.066 C 398.48 631.734 392.564 619.877 384.821 624.261 C 381.536 631.224 423.02 765.038 425.604 785.166 C 425.738 786.211 428.201 788.709 429.191 789.456 C 429.567 794.782 427.576 794.654 429.962 799.88 C 432.759 806.007 435.745 812.005 438.715 818.038 C 465.53 817.859 511.332 823.53 537.041 817.352 C 536.348 818.674 535.437 821.221 534.373 822.171 C 530.749 825.409 446.13 823.879 434.651 823.882 C 424.943 791.935 417.427 759.761 408.992 727.469 C 398.184 686.452 386.453 645.683 373.81 605.194 z"/>
<path transform="translate(0,0)" fill="rgba(0, 0, 0, 1)" d="M 494.451 453.347 C 508.669 466.065 534.187 499.442 545.078 515.601 C 542.576 521.252 538.022 528.648 534.829 534.169 C 534.876 525.081 534.692 517.335 536.243 508.319 C 528.811 499.624 522.187 488.662 513.622 481.172 C 510.596 478.526 509.154 478.858 506.073 480.907 C 500.631 489.651 505.083 504.064 505.63 514.03 C 506.152 523.549 506.391 532.939 506.567 542.471 C 512.435 545.12 518.881 550.118 524.732 548.694 C 528.62 545.657 529.295 539.185 532.605 537.955 C 531.638 545.802 511.471 574.564 505.863 582.526 C 509.389 550.739 501.733 484.012 494.451 453.347 z"/>
<path transform="translate(0,0)" fill="rgba(128, 132, 135, 1)" d="M 537.131 511.792 C 540.849 515.009 540.031 517.304 539.222 521.659 L 537.643 521.79 C 536.196 519.499 536.933 514.72 537.131 511.792 z"/>
<path transform="translate(0,0)" fill="rgba(0, 0, 0, 1)" d="M 196.83 627.484 C 198.584 627.848 197.975 627.636 199.409 629.014 C 200.295 635.754 199.551 648.362 199.367 655.576 L 198.211 700.781 C 195.543 697.612 192.738 693.664 190.224 690.307 C 170.427 660.345 174.918 652.947 196.83 627.484 z M 188.445 669.356 L 192.003 669.951 C 195.289 667.115 197.404 651.259 195.193 646.416 C 194.948 645.88 191.733 643.267 191.016 642.699 C 181.239 652.867 174.02 659.655 188.445 669.356 z"/>
<path transform="translate(0,0)" fill="rgba(0, 0, 0, 1)" d="M 981.996 498.659 C 987.969 510.858 994.03 541.46 997.93 555.744 L 1045.03 731.236 L 1060.36 789.404 C 1061.04 792.069 1060.92 798.393 1061.65 799.629 C 1064.63 804.677 1070.27 812.587 1074.62 816.234 C 1133.7 816.85 1193.09 815.697 1252.12 816.469 C 1254.38 814.278 1258.54 810 1260.93 808.33 C 1258.98 811.769 1255.84 814.991 1253.18 817.972 C 1228.71 818.71 1199.53 817.895 1174.73 817.853 L 1066 818.033 C 1059.39 800.288 1052.42 768.691 1047.5 749.402 L 1017.93 635.789 L 992.632 541.742 C 989.996 531.742 983.093 507.67 981.996 498.659 z"/>
<path transform="translate(0,0)" fill="rgba(0, 0, 0, 1)" d="M 1925.2 795.226 C 1935.5 800.585 1944.66 808.909 1953.22 816.765 C 1897.02 817.213 1833.26 818.62 1777.48 817.164 C 1775.61 814.625 1772.61 810.824 1771.2 808.161 C 1775.15 811.374 1775.92 812.729 1781.09 812.746 C 1830.8 812.913 1880.7 812.788 1930.39 812.745 C 1930.44 803.045 1931.62 801.743 1925.2 795.226 z"/>
<path transform="translate(0,0)" fill="rgba(0, 0, 0, 1)" d="M 1180.93 96.6253 C 1191.73 110.319 1205.74 127.288 1214.71 141.866 C 1210.11 138.399 1207.37 133.845 1204.1 129.12 C 1200.8 128.687 1196.25 127.682 1193.31 128.839 C 1187.51 140.329 1195.71 177.891 1197.09 191.508 C 1199.93 219.556 1203.71 248.537 1209.73 276.098 C 1210.23 278.392 1208.8 285.479 1209.22 287 C 1210.86 292.88 1216.44 353.89 1217.12 354.769 C 1217.63 354.378 1230.37 337.251 1231.64 335.286 L 1232.49 335.004 C 1231.65 340.922 1219.47 357.017 1215.41 362.372 C 1213.96 322.012 1205.22 270.318 1200.1 229.603 C 1194.57 185.686 1188.82 139.964 1180.93 96.6253 z"/>
<path transform="translate(0,0)" fill="rgba(0, 0, 0, 1)" d="M 195.617 799.059 C 193.556 805.606 189.674 811.305 192.098 816.579 C 205.029 825.697 261.533 820.73 278.681 821.53 C 279.77 821.581 284.521 818.141 286.236 818.135 C 300.056 817.709 342.316 817.883 354.544 822.116 C 363.369 818.781 371.416 819.147 375.445 813.409 C 375.645 809.022 375.57 810.295 373.371 805.838 C 378.41 810.846 384.254 818.52 388.83 824.197 C 317.752 822.074 249.358 823.866 178.741 824.046 C 182.779 816.529 190.463 806.132 195.617 799.059 z"/>
<path transform="translate(0,0)" fill="rgba(0, 0, 0, 1)" d="M 67.6026 794.62 C 74.7935 781.701 95.3194 756.585 105.239 745.164 C 105.554 747.945 107.076 762.932 107.669 763.952 C 111.477 765.432 118.285 760.722 124.27 759.861 C 107.225 771.803 85.6759 783.96 67.6026 794.62 z"/>
<path transform="translate(0,0)" fill="rgba(0, 0, 0, 1)" d="M 1368.46 736.953 C 1368.17 743.088 1360.65 744.713 1362.99 752.888 C 1365.44 755.242 1366.59 756.132 1369.37 758.087 C 1380.88 755.834 1393.98 754.697 1401.27 745.001 C 1405.48 744.174 1409.96 743.206 1414.17 742.532 C 1386.71 756.705 1359.69 770.749 1331.5 783.452 C 1337.35 775.73 1362.74 741.641 1368.46 736.953 z"/>
<path transform="translate(0,0)" fill="rgba(0, 0, 0, 1)" d="M 843.929 795.206 C 858.125 803.231 877.501 814.224 889.556 824.635 C 866.428 821.27 826.322 820.396 802.28 820.16 C 798.47 815.923 792.92 810.085 790.254 805.137 C 807.079 822.334 825.279 818.907 848.489 819.586 C 856.936 815.345 848.935 799.991 843.929 795.206 z"/>
<path transform="translate(0,0)" fill="rgba(0, 0, 0, 1)" d="M 222.914 617.77 C 233.063 626.423 239.552 632.669 246.951 643.737 C 241.366 640.423 235.663 636.956 229.053 636.587 C 220.245 641.145 220.978 677.66 221.082 687.908 C 245.413 688.91 233.29 685.31 248.108 679.384 C 242.577 687.274 228.47 699.856 220.073 704.45 C 219.699 677.443 219.595 644.546 222.914 617.77 z"/>
<path transform="translate(0,0)" fill="rgba(0, 0, 0, 1)" d="M 573.055 803.012 C 577.302 796.591 605.063 760.217 609.32 756.93 C 608.057 762.299 602.244 766.64 604.598 771.56 C 610.139 774.713 613.66 773.348 619.832 776.885 C 622.484 776.475 623.509 776.284 626.118 775.449 C 613.578 783.803 588.245 794.347 573.055 803.012 z"/>
<path transform="translate(0,0)" fill="rgba(0, 0, 0, 1)" d="M 706.934 703.723 C 720.348 711.893 733.809 721.658 746.941 730.429 C 752.784 734.332 768.723 744.168 773.163 748.566 C 761.103 743.699 763.535 742.166 748.565 738.494 C 749.782 745.184 750.564 753.131 753.705 758.933 C 743.361 749.248 737.876 734.58 726.802 725.619 C 722.655 727.677 718.376 729.973 714.001 731.428 C 715.503 727.216 724.68 728.402 725.389 722.117 C 723.589 718.278 711.77 709.328 706.934 703.723 z"/>
<path transform="translate(0,0)" fill="rgba(0, 0, 0, 1)" d="M 1150.83 510.439 L 1151.33 510.63 C 1166.88 516.655 1179.05 536.865 1190.85 533.268 C 1197.02 527.762 1196.01 518.145 1196.09 510.455 C 1199.15 523.82 1200.03 541.97 1203.69 558.048 C 1185.75 542.041 1168.31 527.258 1150.83 510.439 z"/>
<path transform="translate(0,0)" fill="rgba(0, 0, 0, 1)" d="M 746.728 617.251 C 754.183 622.974 760.126 630.574 764.607 638.79 C 762.302 636.68 760.609 634.599 757.543 634.433 C 754.414 635.513 753.524 636.681 751.192 639.016 C 749.007 644.963 750.864 660.464 757.287 664.216 C 768.043 662.593 767.289 647.408 764.942 639.391 C 773.276 650.165 767.677 657.156 761.818 667.463 C 760.228 670.259 754.56 677.286 751.45 678.261 C 748.669 669.405 748.609 630.377 746.728 617.251 z"/>
<path transform="translate(0,0)" fill="rgba(0, 0, 0, 1)" d="M 1596.16 444.758 C 1604.79 430.72 1615.4 412.69 1626.66 401.06 C 1627.55 421.568 1637.96 454.945 1637.09 477.575 C 1633.99 467.293 1632.43 426.618 1626.66 422.505 C 1620.95 422.446 1608.74 429.632 1604.87 433.933 C 1601.39 437.798 1601.11 441.163 1596.16 444.758 z"/>
<path transform="translate(0,0)" fill="rgba(0, 0, 0, 1)" d="M 951.757 390.845 C 963.469 400.31 976.665 410.784 986.952 421.791 C 979.197 417.365 976.251 413.172 969.725 407.97 C 966.648 410.392 963.254 413.199 960.13 415.483 C 963.596 427.469 982.53 489.958 981.996 498.659 C 979.958 494.976 973.929 471.107 972.398 465.469 C 965.738 440.534 958.858 415.658 951.757 390.845 z"/>
<path transform="translate(0,0)" fill="rgba(0, 0, 0, 1)" d="M 1378.46 496.719 C 1397.59 475.406 1421.49 455.202 1441.15 433.845 C 1443.7 438.014 1446.28 442.676 1448.76 446.939 C 1446.27 444.926 1443.42 442.003 1440.4 442.071 C 1424.5 446.536 1405.87 485.552 1378.46 496.719 z"/>
<path transform="translate(0,0)" fill="rgba(0, 0, 0, 1)" d="M 1242.35 177.96 C 1257.56 195.013 1272.84 219.99 1288.04 237.688 C 1285.81 241.078 1277.22 255.145 1275.56 257.024 C 1276.99 250.072 1279.99 248.039 1282 235.06 C 1266.95 216.606 1252.11 199.953 1242.35 177.96 z"/>
<path transform="translate(0,0)" fill="rgba(0, 0, 0, 1)" d="M 623.394 620.201 C 634.544 631.585 640.601 641.712 648.787 655.275 C 647.048 658.012 644.277 662.718 642.467 665.18 C 639.846 654.563 639.316 646.016 632.641 636.569 C 621.427 620.7 615.942 633.975 606.977 640.688 C 612.494 633.895 617.966 627.066 623.394 620.201 z"/>
<path transform="translate(0,0)" fill="rgba(0, 0, 0, 1)" d="M 1136.34 71.8878 C 1137.47 80.7129 1141.14 104.524 1141.11 112.355 C 1139.85 108.013 1138.83 101.946 1137.46 96.9402 C 1132.04 93.0043 1129.53 91.1582 1124.87 86.397 L 1115.23 95.8229 C 1119.18 89.3839 1130.61 76.9624 1136.34 71.8878 z"/>
<path transform="translate(0,0)" fill="rgba(0, 0, 0, 1)" d="M 495.965 643.726 C 498.371 654.786 498.505 671.038 500.609 683.647 C 490.824 675.317 481.288 667.236 471.869 658.498 C 477.095 659.79 479.695 662.031 484.284 664.394 C 498.566 671.752 495.848 653.414 495.965 643.726 z"/>
<path transform="translate(0,0)" fill="rgba(0, 0, 0, 1)" d="M 669.271 678.611 C 681.016 686.309 693.707 694.268 705.038 702.396 C 684.471 702.029 685.61 679.916 658.172 692.713 C 661.387 688.488 665.8 682.361 669.271 678.611 z"/>
<path transform="translate(0,0)" fill="rgba(0, 0, 0, 1)" d="M 1315.18 271.943 C 1320.27 277.663 1332.24 290.832 1335.81 296.781 C 1329.18 291.401 1329.2 290.131 1321.26 286.193 C 1312.69 288.361 1309.99 288.475 1304.28 295.228 C 1308 287.508 1311.64 279.746 1315.18 271.943 z"/>
<path transform="translate(0,0)" fill="rgba(0, 0, 0, 1)" d="M 1644.38 545.296 C 1645.42 550.24 1645.5 560.264 1645.69 565.694 C 1639.48 561.752 1623.81 552.219 1618.85 547.564 C 1626.02 550.603 1631.57 553.579 1638.62 548.604 C 1641.07 546.876 1641.72 548.112 1644.38 545.296 z"/>
<path transform="translate(0,0)" fill="rgba(0, 0, 0, 1)" d="M 1521.32 536.402 C 1529.07 539.64 1546.39 550.146 1552.98 555.582 C 1541.91 551.21 1533.84 546.098 1522.09 544.103 C 1514.61 549.22 1509.27 554.067 1502.52 560.029 C 1505.5 555.506 1516.91 542.309 1521.32 536.402 z"/>
<path transform="translate(0,0)" fill="rgba(0, 0, 0, 1)" d="M 457.568 451.758 C 461.693 446.279 466.834 439.018 471.49 434.211 C 473.895 444.395 478.305 471.123 478.117 481.583 C 474.659 471.964 475.687 464.246 473.382 453.55 C 466.24 449.765 464.671 447.545 457.568 451.758 z"/>
<path transform="translate(0,0)" fill="rgba(0, 0, 0, 1)" d="M 1327.76 547.617 C 1333.3 541.117 1343.47 531.695 1349.98 525.327 C 1358.76 516.736 1369.11 505.586 1378.19 497.657 C 1373.38 508.432 1352.79 521.943 1346.36 530.996 C 1338.56 541.97 1347.51 545.751 1327.76 547.617 z"/>
<path transform="translate(0,0)" fill="rgba(0, 0, 0, 1)" d="M 1480.88 491.752 C 1484.39 496.68 1487.96 501.571 1491.57 506.424 C 1487.41 512.223 1485.03 515.09 1480.14 520.29 C 1482.95 512.877 1481.52 499.604 1480.88 491.752 z"/>
<path transform="translate(0,0)" fill="rgba(0, 0, 0, 1)" d="M 1551.73 501.323 C 1556.02 495.51 1559.79 490.348 1564.59 484.901 C 1563.43 488.819 1561.59 494.344 1560.87 498.233 C 1563.39 507.021 1564.04 508.281 1570.77 514.723 C 1566.07 512.236 1555.67 504.699 1551.73 501.323 z"/>
<path transform="translate(0,0)" fill="rgba(0, 0, 0, 1)" d="M 280.199 681.312 C 284.572 686.04 288.444 691.207 291.756 696.731 C 279.234 684.837 279.333 689.333 268.145 697.801 C 271.651 692.159 276.12 686.604 280.199 681.312 z"/>
</g></svg></svg></svg>